<svg width="50" height="50" viewBox="0 0 50 50" fill="none" xmlns="http://www.w3.org/2000/svg">
<g id="carbon:data-class">
<path id="Vector" d="M40.625 25.0001C39.5125 25.0058 38.4222 25.3113 37.4688 25.8844L33.0016 21.4173L36.5844 17.8344C37.1702 17.2484 37.4993 16.4537 37.4993 15.6251C37.4993 14.7964 37.1702 14.0017 36.5844 13.4157L27.2094 4.04069C26.6234 3.45484 25.8286 3.12573 25 3.12573C24.1714 3.12573 23.3767 3.45484 22.7906 4.04069L13.4156 13.4157C12.8298 14.0017 12.5007 14.7964 12.5007 15.6251C12.5007 16.4537 12.8298 17.2484 13.4156 17.8344L16.9984 21.4173L12.5313 25.8844C11.2076 25.0991 9.64283 24.824 8.1307 25.1107C6.61858 25.3975 5.26316 26.2264 4.31898 27.4419C3.3748 28.6573 2.90681 30.1756 3.0029 31.7117C3.09899 33.2478 3.75255 34.6959 4.84084 35.7842C5.92913 36.8725 7.37729 37.5261 8.91336 37.6222C10.4494 37.7183 11.9678 37.2503 13.1832 36.3061C14.3986 35.3619 15.2276 34.0065 15.5143 32.4944C15.8011 30.9822 15.526 29.4174 14.7406 28.0938L19.2078 23.6266L22.7906 27.2094C22.9844 27.3982 23.2018 27.561 23.4375 27.6938V34.3751H18.75V46.8751H31.25V34.3751H26.5625V27.6923C26.7981 27.56 27.0155 27.3977 27.2094 27.2094L30.7922 23.6266L35.2594 28.0938C34.5674 29.2808 34.287 30.6632 34.4619 32.0261C34.6367 33.3889 35.257 34.6557 36.2263 35.6296C37.1955 36.6035 38.4594 37.2298 39.8213 37.4111C41.1833 37.5925 42.567 37.3187 43.7573 36.6324C44.9476 35.9461 45.8778 34.8857 46.4032 33.6161C46.9286 32.3465 47.0197 30.9389 46.6625 29.6122C46.3052 28.2855 45.5196 27.114 44.4277 26.2799C43.3358 25.4458 41.999 24.9959 40.625 25.0001ZM12.5 31.2501C12.5 31.8681 12.3167 32.4723 11.9733 32.9862C11.63 33.5001 11.1419 33.9007 10.5709 34.1372C9.99987 34.3737 9.37154 34.4356 8.76534 34.315C8.15915 34.1944 7.60233 33.8968 7.16529 33.4598C6.72825 33.0227 6.43063 32.4659 6.31005 31.8597C6.18947 31.2535 6.25135 30.6252 6.48788 30.0542C6.7244 29.4832 7.12494 28.9951 7.63885 28.6517C8.15275 28.3083 8.75694 28.1251 9.375 28.1251C10.2038 28.1251 10.9987 28.4543 11.5847 29.0404C12.1708 29.6264 12.5 30.4213 12.5 31.2501ZM28.125 37.5001V43.7501H21.875V37.5001H28.125ZM25 25.0001L15.625 15.6251L25 6.25007L34.375 15.6251L25 25.0001ZM40.625 34.3751C40.0069 34.3751 39.4027 34.1918 38.8888 33.8484C38.3749 33.505 37.9744 33.017 37.7379 32.446C37.5014 31.8749 37.4395 31.2466 37.56 30.6404C37.6806 30.0342 37.9783 29.4774 38.4153 29.0404C38.8523 28.6033 39.4092 28.3057 40.0153 28.1851C40.6215 28.0645 41.2499 28.1264 41.8209 28.3629C42.3919 28.5995 42.88 29 43.2233 29.5139C43.5667 30.0278 43.75 30.632 43.75 31.2501C43.75 32.0789 43.4208 32.8737 42.8347 33.4598C42.2487 34.0458 41.4538 34.3751 40.625 34.3751Z" fill="#1E1E1E"/>
</g>
</svg>
