<svg width="50" height="50" viewBox="0 0 50 50" fill="none" xmlns="http://www.w3.org/2000/svg">
<g id="carbon:application-web">
<path id="Vector" d="M40.625 3.125H46.875V9.375H40.625V3.125ZM40.625 12.5H46.875V18.75H40.625V12.5ZM31.25 3.125H37.5V9.375H31.25V3.125ZM31.25 12.5H37.5V18.75H31.25V12.5Z" fill="#1E1E1E"/>
<path id="Vector_2" d="M43.75 25V34.375H6.25V9.375H25V6.25H6.25C5.4212 6.25 4.62634 6.57924 4.04029 7.16529C3.45424 7.75134 3.125 8.5462 3.125 9.375V34.375C3.125 35.2038 3.45424 35.9987 4.04029 36.5847C4.62634 37.1708 5.4212 37.5 6.25 37.5H18.75V43.75H12.5V46.875H37.5V43.75H31.25V37.5H43.75C44.5788 37.5 45.3737 37.1708 45.9597 36.5847C46.5458 35.9987 46.875 35.2038 46.875 34.375V25H43.75ZM28.125 43.75H21.875V37.5H28.125V43.75Z" fill="#1E1E1E"/>
</g>
</svg>
