<svg width="50" height="50" viewBox="0 0 50 50" fill="none" xmlns="http://www.w3.org/2000/svg">
<g id="fluent:device-meeting-room-remote-20-regular">
<path id="Vector" d="M9.145 12.365C9.459 10.9833 10.2332 9.74923 11.3406 8.86527C12.4481 7.98132 13.823 7.49991 15.24 7.5H34.7575C36.1745 7.49991 37.5494 7.98132 38.6569 8.86527C39.7643 9.74923 40.5385 10.9833 40.8525 12.365L44.83 29.865C45.038 30.7801 45.0372 31.7304 44.8277 32.6452C44.6182 33.56 44.2054 34.4158 43.6199 35.1493C43.0344 35.8827 42.2912 36.4749 41.4456 36.8818C40.5999 37.2888 39.6735 37.5001 38.735 37.5H22.5V35H38.735C39.298 35.0001 39.8538 34.8734 40.3612 34.6293C40.8686 34.3852 41.3145 34.03 41.6658 33.5901C42.0171 33.1501 42.2649 32.6367 42.3907 32.0879C42.5165 31.5391 42.5171 30.9691 42.3925 30.42L38.4175 12.92C38.2291 12.0899 37.7638 11.3485 37.0982 10.8178C36.4326 10.2872 35.6063 9.99875 34.755 10H15.24C14.39 10.0005 13.5654 10.2896 12.9013 10.8202C12.2373 11.3507 11.7731 12.0911 11.585 12.92L10.5425 17.5H8.75C8.485 17.5 8.22417 17.5167 7.9675 17.55L9.145 12.365ZM22.375 42.5H36.25C36.5815 42.5 36.8995 42.3683 37.1339 42.1339C37.3683 41.8995 37.5 41.5815 37.5 41.25C37.5 40.9185 37.3683 40.6005 37.1339 40.3661C36.8995 40.1317 36.5815 40 36.25 40H22.5V41.25C22.5 41.6783 22.4583 42.095 22.375 42.5ZM12.5 30C13.163 30 13.7989 29.7366 14.2678 29.2678C14.7366 28.7989 15 28.163 15 27.5C15 26.837 14.7366 26.2011 14.2678 25.7322C13.7989 25.2634 13.163 25 12.5 25C11.837 25 11.2011 25.2634 10.7322 25.7322C10.2634 26.2011 10 26.837 10 27.5C10 28.163 10.2634 28.7989 10.7322 29.2678C11.2011 29.7366 11.837 30 12.5 30ZM5 23.75C5 22.7554 5.39509 21.8016 6.09835 21.0983C6.80161 20.3951 7.75544 20 8.75 20H16.25C17.2446 20 18.1984 20.3951 18.9017 21.0983C19.6049 21.8016 20 22.7554 20 23.75V41.25C20 42.2446 19.6049 43.1984 18.9017 43.9016C18.1984 44.6049 17.2446 45 16.25 45H8.75C7.75544 45 6.80161 44.6049 6.09835 43.9016C5.39509 43.1984 5 42.2446 5 41.25V23.75ZM8.75 22.5C8.41848 22.5 8.10054 22.6317 7.86612 22.8661C7.6317 23.1005 7.5 23.4185 7.5 23.75V41.25C7.5 41.5815 7.6317 41.8995 7.86612 42.1339C8.10054 42.3683 8.41848 42.5 8.75 42.5H16.25C16.5815 42.5 16.8995 42.3683 17.1339 42.1339C17.3683 41.8995 17.5 41.5815 17.5 41.25V23.75C17.5 23.4185 17.3683 23.1005 17.1339 22.8661C16.8995 22.6317 16.5815 22.5 16.25 22.5H8.75Z" fill="#1E1E1E"/>
</g>
</svg>
