<svg width="32" height="32" viewBox="0 0 32 32" fill="none" xmlns="http://www.w3.org/2000/svg">
<g id="icon-park:quote">
<g id="Group">
<path id="Vector" fill-rule="evenodd" clip-rule="evenodd" d="M12.5689 6.07723C7.54847 9.30138 4.75942 13.054 4.20171 17.3352C3.33347 23.9999 9.2936 27.2621 12.3135 24.331C15.3335 21.4 13.5232 17.6796 11.3365 16.6627C9.14973 15.6457 7.81247 15.9999 8.04573 14.6409C8.279 13.282 11.3901 9.51411 14.1233 7.75938C14.3046 7.60518 14.3736 7.30598 14.199 7.07898C14.0841 6.92971 13.8589 6.63694 13.5232 6.20066C13.2297 5.81914 12.9485 5.83343 12.5689 6.07723Z" fill="#F6941E"/>
<path id="Vector_2" fill-rule="evenodd" clip-rule="evenodd" d="M25.7859 6.07723C20.7656 9.30138 17.9765 13.054 17.4188 17.3352C16.5506 23.9999 22.5107 27.2621 25.5307 24.331C28.5506 21.4 26.7403 17.6796 24.5536 16.6627C22.3669 15.6457 21.0295 15.9999 21.2629 14.6409C21.4961 13.282 24.6072 9.51411 27.3404 7.75938C27.5217 7.60518 27.5907 7.30598 27.4161 7.07898C27.3013 6.92971 27.076 6.63694 26.7403 6.20066C26.4468 5.81914 26.1656 5.83343 25.7859 6.07723Z" fill="#F6941E"/>
</g>
</g>
</svg>
