<svg width="50" height="50" viewBox="0 0 50 50" fill="none" xmlns="http://www.w3.org/2000/svg">
<g id="pepicons-pencil:cv">
<g id="Group">
<path id="Vector" d="M16.25 31.25C15.9185 31.25 15.6005 31.1183 15.3661 30.8839C15.1317 30.6495 15 30.3315 15 30C15 29.6685 15.1317 29.3505 15.3661 29.1161C15.6005 28.8817 15.9185 28.75 16.25 28.75H33.75C34.0815 28.75 34.3995 28.8817 34.6339 29.1161C34.8683 29.3505 35 29.6685 35 30C35 30.3315 34.8683 30.6495 34.6339 30.8839C34.3995 31.1183 34.0815 31.25 33.75 31.25H16.25ZM16.25 37.5C15.9185 37.5 15.6005 37.3683 15.3661 37.1339C15.1317 36.8995 15 36.5815 15 36.25C15 35.9185 15.1317 35.6005 15.3661 35.3661C15.6005 35.1317 15.9185 35 16.25 35H33.75C34.0815 35 34.3995 35.1317 34.6339 35.3661C34.8683 35.6005 35 35.9185 35 36.25C35 36.5815 34.8683 36.8995 34.6339 37.1339C34.3995 37.3683 34.0815 37.5 33.75 37.5H16.25Z" fill="#1E1E1E"/>
<path id="Vector_2" fill-rule="evenodd" clip-rule="evenodd" d="M27.9625 2.5H11.25C10.2554 2.5 9.30161 2.89509 8.59835 3.59835C7.89509 4.30161 7.5 5.25544 7.5 6.25V43.75C7.5 44.7446 7.89509 45.6984 8.59835 46.4016C9.30161 47.1049 10.2554 47.5 11.25 47.5H38.75C39.7446 47.5 40.6984 47.1049 41.4016 46.4016C42.1049 45.6984 42.5 44.7446 42.5 43.75V18.005C42.4998 17.0662 42.1474 16.1616 41.5125 15.47L30.7275 3.715C30.376 3.33186 29.9487 3.026 29.4727 2.81684C28.9967 2.60767 28.4824 2.49978 27.9625 2.5ZM10 6.25C10 5.91848 10.1317 5.60054 10.3661 5.36612C10.6005 5.1317 10.9185 5 11.25 5H27.9625C28.136 4.99981 28.3075 5.03572 28.4664 5.10544C28.6252 5.17517 28.7677 5.27718 28.885 5.405L39.67 17.16C39.8819 17.3904 39.9997 17.6919 40 18.005V43.75C40 44.0815 39.8683 44.3995 39.6339 44.6339C39.3995 44.8683 39.0815 45 38.75 45H11.25C10.9185 45 10.6005 44.8683 10.3661 44.6339C10.1317 44.3995 10 44.0815 10 43.75V6.25Z" fill="#1E1E1E"/>
<path id="Vector_3" d="M28.75 5.25V17H40.5" stroke="#1E1E1E" stroke-width="2.5" stroke-linecap="round" stroke-linejoin="round"/>
<path id="Vector_4" d="M20.335 15.3325C20.692 15.3435 21.0476 15.2826 21.3806 15.1535C21.7136 15.0244 22.0174 14.8298 22.2738 14.5811C22.5302 14.3325 22.734 14.0348 22.8732 13.7059C23.0124 13.377 23.0841 13.0235 23.0841 12.6663C23.0841 12.3091 23.0124 11.9556 22.8732 11.6266C22.734 11.2977 22.5302 11.0001 22.2738 10.7514C22.0174 10.5028 21.7136 10.3081 21.3806 10.179C21.0476 10.05 20.692 9.9891 20.335 10C19.642 10.0213 18.9845 10.3115 18.5018 10.8092C18.0191 11.3069 17.7491 11.973 17.7491 12.6663C17.7491 13.3596 18.0191 14.0257 18.5018 14.5234C18.9845 15.0211 19.642 15.3113 20.335 15.3325Z" fill="#1E1E1E"/>
<path id="Vector_5" fill-rule="evenodd" clip-rule="evenodd" d="M25.665 21.1099C25.665 18.2749 23.2775 16.2224 20.3325 16.2224C17.3875 16.2224 15 18.2724 15 21.1099V22.4449C15.0007 22.6805 15.0947 22.9063 15.2616 23.0726C15.4284 23.239 15.6544 23.3324 15.89 23.3324H24.7775C25.0127 23.3318 25.238 23.238 25.4043 23.0717C25.5706 22.9054 25.6643 22.6801 25.665 22.4449V21.1099Z" fill="#1E1E1E"/>
</g>
</g>
</svg>
