<svg width="50" height="50" viewBox="0 0 50 50" fill="none" xmlns="http://www.w3.org/2000/svg">
<g id="ri:visa-line" clip-path="url(#clip0_1_433)">
<path id="Vector" d="M46.2958 32.8501L45.8271 30.5063H40.5896L39.7562 32.8334L35.5583 32.8417C38.2569 26.357 40.2597 21.5536 41.5667 18.4313C41.9083 17.6147 42.5146 17.198 43.4083 17.2042C44.0917 17.2098 45.2069 17.2105 46.7542 17.2063L50 32.8438L46.2958 32.8501ZM41.7667 27.2959H45.1437L43.8833 21.4209L41.7667 27.2959ZM14.7125 17.2022L18.9333 17.2063L12.4083 32.8522L8.13542 32.848C7.06094 28.7153 5.99982 24.5792 4.95208 20.4397C4.74375 19.6147 4.33125 19.0376 3.5375 18.7647C2.82778 18.5216 1.64861 18.1459 0 17.6376V17.2063H6.74375C7.91042 17.2063 8.59167 17.7709 8.81042 18.9292C9.03125 20.0904 9.5868 23.0445 10.4771 27.7917L14.7125 17.2022ZM24.7333 17.2063L21.3979 32.8501L17.3792 32.8438L20.7083 17.2022L24.7333 17.2063ZM32.8792 16.9167C34.0812 16.9167 35.5958 17.2917 36.4667 17.6376L35.7625 20.8792C34.975 20.5626 33.6792 20.1355 32.5896 20.1501C31.0062 20.1772 30.0271 20.8417 30.0271 21.4792C30.0271 22.5167 31.7271 23.0397 33.4771 24.173C35.4729 25.4647 35.7375 26.6251 35.7125 27.8876C35.6854 30.5022 33.4771 33.0834 28.8187 33.0834C26.6937 33.0522 25.9271 32.8751 24.1937 32.2584L24.9271 28.8751C26.6917 29.6126 27.4396 29.848 28.9479 29.848C30.3292 29.848 31.5146 29.2897 31.525 28.3167C31.5333 27.6251 31.1083 27.2813 29.5583 26.4272C28.0083 25.573 25.8333 24.3876 25.8625 22.0063C25.8979 18.9605 28.7833 16.9167 32.8792 16.9167Z" fill="white"/>
</g>
<defs>
<clipPath id="clip0_1_433">
<rect width="50" height="50" fill="white"/>
</clipPath>
</defs>
</svg>
