<svg width="50" height="50" viewBox="0 0 50 50" fill="none" xmlns="http://www.w3.org/2000/svg">
<g id="wpf:search" clip-path="url(#clip0_1_393)">
<path id="Vector" d="M19.2308 0.361573C16.7525 0.360815 14.2984 0.848351 12.0086 1.79633C9.71887 2.7443 7.63831 4.13414 5.88584 5.88644C4.13336 7.63873 2.74331 9.71915 1.79511 12.0088C0.846897 14.2985 0.359111 16.7526 0.359616 19.2308C0.358858 21.7092 0.846458 24.1635 1.79455 26.4534C2.74265 28.7433 4.13266 30.8239 5.88516 32.5764C7.63766 34.3289 9.7183 35.7189 12.0082 36.667C14.2981 37.6151 16.7524 38.1027 19.2308 38.102C23.6346 38.102 27.6788 36.5423 30.8904 34.0154L32.5731 35.6981C32.2276 36.3695 32.1052 37.1335 32.2238 37.8792C32.3425 38.6249 32.6959 39.3133 33.2327 39.8443L42.0673 48.7385C43.4385 50.1116 45.6827 50.1116 47.0558 48.7385L48.7385 47.0558C49.3973 46.3929 49.767 45.4962 49.767 44.5616C49.767 43.627 49.3973 42.7303 48.7385 42.0673L39.8442 33.2327C39.3102 32.6985 38.6176 32.3513 37.8699 32.2432C37.1223 32.135 36.3597 32.2717 35.6962 32.6327L34.0135 30.95C36.216 28.1705 37.5907 24.8266 37.98 21.3016C38.3692 17.7767 37.7571 14.2133 36.214 11.0203C34.6708 7.82722 32.2591 5.13366 29.2553 3.24845C26.2515 1.36325 22.7772 0.362714 19.2308 0.361573ZM19.2308 3.84619C23.311 3.84619 27.2242 5.46706 30.1093 8.35224C32.9945 11.2374 34.6154 15.1505 34.6154 19.2308C34.6154 23.3111 32.9945 27.2242 30.1093 30.1094C27.2242 32.9945 23.311 34.6154 19.2308 34.6154C15.1505 34.6154 11.2374 32.9945 8.3522 30.1094C5.46703 27.2242 3.84615 23.3111 3.84615 19.2308C3.84615 15.1505 5.46703 11.2374 8.3522 8.35224C11.2374 5.46706 15.1505 3.84619 19.2308 3.84619ZM9.49423 14.3635C8.4689 16.025 7.92807 17.9399 7.93269 19.8923C7.93041 21.2741 8.2009 22.6428 8.72863 23.9198C9.25637 25.1969 10.031 26.3572 11.0081 27.3343C11.9851 28.3114 13.1455 29.086 14.4225 29.6137C15.6996 30.1414 17.0682 30.4119 18.45 30.4097C20.6226 30.4072 22.7417 29.7357 24.5192 28.4866C24.0398 28.5316 23.5584 28.5508 23.0769 28.5443C21.2921 28.5488 19.524 28.2007 17.8741 27.5198C16.2242 26.839 14.7252 25.8388 13.463 24.5768C12.2009 23.3149 11.2005 21.8159 10.5194 20.1662C9.83832 18.5164 9.48992 16.7483 9.49423 14.9635C9.49423 14.7635 9.48462 14.5635 9.49423 14.3635Z" fill="#1E1E1E"/>
</g>
<defs>
<clipPath id="clip0_1_393">
<rect width="50" height="50" fill="white"/>
</clipPath>
</defs>
</svg>
